<mxfile host="app.diagrams.net" agent="Mozilla/5.0 (Windows NT 10.0; Win64; x64) AppleWebKit/537.36 (KHTML, like Gecko) Chrome/139.0.0.0 Safari/537.36" version="28.1.2">
  <diagram name="Page-1" id="e0qKtThSxawe6YLHo03q">
    <mxGraphModel dx="2296" dy="1240" grid="1" gridSize="10" guides="1" tooltips="1" connect="1" arrows="1" fold="1" page="1" pageScale="1" pageWidth="827" pageHeight="1169" math="0" shadow="0">
      <root>
        <mxCell id="0" />
        <mxCell id="1" parent="0" />
        <mxCell id="yqtouhMI09Cohzu4faKZ-2" value="&lt;font style=&quot;font-size: 15px;&quot;&gt;enter the date&lt;/font&gt;" style="ellipse;whiteSpace=wrap;html=1;" vertex="1" parent="1">
          <mxGeometry x="340" y="70" width="120" height="80" as="geometry" />
        </mxCell>
        <mxCell id="yqtouhMI09Cohzu4faKZ-3" value="&lt;font style=&quot;font-size: 16px;&quot;&gt;location&lt;/font&gt;" style="shape=parallelogram;perimeter=parallelogramPerimeter;whiteSpace=wrap;html=1;fixedSize=1;" vertex="1" parent="1">
          <mxGeometry x="330" y="270" width="140" height="70" as="geometry" />
        </mxCell>
        <mxCell id="yqtouhMI09Cohzu4faKZ-4" value="" style="endArrow=classic;html=1;rounded=0;exitX=0.5;exitY=1;exitDx=0;exitDy=0;entryX=0.5;entryY=0;entryDx=0;entryDy=0;" edge="1" parent="1" source="yqtouhMI09Cohzu4faKZ-2" target="yqtouhMI09Cohzu4faKZ-3">
          <mxGeometry width="50" height="50" relative="1" as="geometry">
            <mxPoint x="380" y="240" as="sourcePoint" />
            <mxPoint x="440" y="300" as="targetPoint" />
          </mxGeometry>
        </mxCell>
        <mxCell id="yqtouhMI09Cohzu4faKZ-6" value="" style="endArrow=classic;html=1;rounded=0;entryX=0.5;entryY=0;entryDx=0;entryDy=0;exitX=0.5;exitY=1;exitDx=0;exitDy=0;" edge="1" parent="1" source="yqtouhMI09Cohzu4faKZ-3" target="yqtouhMI09Cohzu4faKZ-9">
          <mxGeometry width="50" height="50" relative="1" as="geometry">
            <mxPoint x="400" y="350" as="sourcePoint" />
            <mxPoint x="396.83000000000004" y="470" as="targetPoint" />
          </mxGeometry>
        </mxCell>
        <mxCell id="yqtouhMI09Cohzu4faKZ-9" value="&lt;font style=&quot;font-size: 16px;&quot;&gt;incident &lt;/font&gt;&lt;font style=&quot;font-size: 15px;&quot;&gt;description&lt;/font&gt;" style="rounded=0;whiteSpace=wrap;html=1;" vertex="1" parent="1">
          <mxGeometry x="330" y="480" width="130" height="70" as="geometry" />
        </mxCell>
        <mxCell id="yqtouhMI09Cohzu4faKZ-11" value="&lt;span style=&quot;font-size: 16px;&quot;&gt;add incident&lt;/span&gt;" style="shape=parallelogram;perimeter=parallelogramPerimeter;whiteSpace=wrap;html=1;fixedSize=1;" vertex="1" parent="1">
          <mxGeometry x="320" y="750" width="140" height="70" as="geometry" />
        </mxCell>
        <mxCell id="yqtouhMI09Cohzu4faKZ-12" value="" style="endArrow=classic;html=1;rounded=0;entryX=0.572;entryY=-0.064;entryDx=0;entryDy=0;entryPerimeter=0;" edge="1" parent="1" target="yqtouhMI09Cohzu4faKZ-11">
          <mxGeometry width="50" height="50" relative="1" as="geometry">
            <mxPoint x="400" y="560" as="sourcePoint" />
            <mxPoint x="440" y="590" as="targetPoint" />
          </mxGeometry>
        </mxCell>
        <mxCell id="yqtouhMI09Cohzu4faKZ-14" value="&lt;font style=&quot;font-size: 15px;&quot;&gt;download &lt;/font&gt;&lt;font style=&quot;font-size: 15px;&quot;&gt;report &lt;/font&gt;&lt;font style=&quot;font-size: 15px;&quot;&gt;(CSV)&lt;/font&gt;" style="ellipse;whiteSpace=wrap;html=1;" vertex="1" parent="1">
          <mxGeometry x="335" y="990" width="120" height="80" as="geometry" />
        </mxCell>
        <mxCell id="yqtouhMI09Cohzu4faKZ-15" value="" style="endArrow=classic;html=1;rounded=0;exitX=0.574;exitY=0.995;exitDx=0;exitDy=0;entryX=0.5;entryY=0;entryDx=0;entryDy=0;exitPerimeter=0;" edge="1" parent="1" source="yqtouhMI09Cohzu4faKZ-11" target="yqtouhMI09Cohzu4faKZ-14">
          <mxGeometry width="50" height="50" relative="1" as="geometry">
            <mxPoint x="390" y="790" as="sourcePoint" />
            <mxPoint x="440" y="740" as="targetPoint" />
          </mxGeometry>
        </mxCell>
      </root>
    </mxGraphModel>
  </diagram>
</mxfile>
